<svg xmlns="http://www.w3.org/2000/svg" width="50" height="50"><path fill="#888" d="M38.565 9.444h-4.555c-.359 0-.65.291-.65.65 0 .359.291.65.65.65h4.555c1.185 0 2.15-.914 2.15-2.037 0-1.124-.965-2.037-2.15-2.037h-3.055c-.453 0-.85-.29-.85-.619 0-.33.396-.619.85-.619h4.555c.359 0 .65-.291.65-.65 0-.359-.291-.65-.65-.65h-4.555c-1.186 0-2.15.861-2.15 1.92 0 1.058.965 1.918 2.15 1.918h3.055c.461 0 .85.338.85.738-.001.398-.39.736-.85.736zm-26.68 28.459h6.312c.332 0 .6-.268.6-.6v-7c0-.331-.268-.6-.6-.6h-6.312c-.332 0-.6.269-.6.6v7c0 .332.268.6.6.6zm3.756-7h1.957v2.301h-1.957v-2.301zm0 3.5h1.957v2.301h-1.957v-2.301zm-3.157-3.5h1.957v2.301h-1.957v-2.301zm0 3.5h1.957v2.301h-1.957v-2.301zm19.401 3.407h6.312c.331 0 .6-.269.6-.6v-7c0-.331-.269-.6-.6-.6h-6.312c-.331 0-.6.268-.6.6v7c0 .331.269.6.6.6zm3.756-7h1.957v2.301h-1.957v-2.301zm0 5.775v-2.275h1.957v2.301h-1.962l.005-.026zm-3.157-5.775h1.957v2.301h-1.957v-2.301zm0 3.5h1.957v2.275l.005.025h-1.962v-2.3zm9.198-11.565c-.07-.274-.221-.585-.513-.926l-.354-.414v-8.691c0-.414-.336-.75-.75-.75h-7.332l-6.029-7.043c-.969-1.129-2.775-1.129-3.742 0l-14.468 16.898c-.664.776-.613 1.403-.486 1.762v21.683c0 .414.336.75.75.75h32.302c.414 0 .75-.336.75-.75v-22.124c0-.149-.054-.28-.128-.395zm-2.367-9.281v.758h-.758c-.359 0-.65.291-.65.65 0 .358.291.649.65.649h.758v.916h-.758c-.359 0-.65.291-.65.649 0 .359.291.65.65.65h.758v1.916l-5.298-6.189h5.298zm-29.833 9.548l.152-.216 14.468-16.899c.402-.471 1.059-.471 1.461 0l14.467 16.899c.09.105.143.19.171.249-.063.017-.162.032-.301.032h-30.136l-.273-.027-.009-.038zm21.309 21.503h-11.562v-1.125h11.562v1.125zm-4.562-8.443h1.125v3.192h-4.688v-8.211h4.688v3.819h-1.125c-.332 0-.6.269-.6.6s.267.6.6.6zm1.875 4.693h.875v1.125h-7.875v-1.125h7zm12.206-12v15.75h-8.019v-1.875c0-.414-.336-.75-.75-.75h-1.062v-1.875c0-.414-.336-.75-.75-.75h-.875v-8.961c0-.414-.336-.75-.75-.75h-6.188c-.414 0-.75.336-.75.75v8.961h-.812c-.414 0-.75.336-.75.75v1.875h-1.125c-.414 0-.75.336-.75.75v1.875h-8.221v-16.625h30.802v.875zm0-2.375h-30.802v-1.828l.256.016h30.136l.41-.027v1.839z"/></svg>