<svg xmlns="http://www.w3.org/2000/svg" width="678.96" height="671.76"><path fill-rule="evenodd" clip-rule="evenodd" fill="#fff" d="M678.96 268.08l-135.6-116.88-2.4-34.32-38.16-10.8-124.8-106.08-130.56 57.36-103.68-6.48-30.24 75.6-61.2 30.72 12.96 90.72-65.28 124.56 34.56 57.12-3.84 25.92 3.6 2.16 185.28 174.72 1.92 2.88 20.16-3.12 46.8 39.6 130.08-71.76 80.16 12.96 42-59.28 76.56-29.04-9.6-115.92 71.28-140.64zm-74.88 135.12l-.48.24-13.92-16.32 66.24-87.36-51.84 103.44zm-12.96-4.8l10.56 12 5.52 60.96h-.24l-15.84-72.96zm14.16 94.56l-55.44-126.72 32.88 22.8 22.56 103.92zm-20.16-110.16l-36.72-24.96-.48-.72 112.56-74.16-75.36 99.84zm82.56-112.08l-121.68 80.4-2.16-107.04 123.84 26.4v.24zm-4.08-8.16l.72.96-120.24-25.68-1.92-79.92 121.44 104.64zm-123.84 86.64l-98.88-98.16 94.56-122.4 4.32 220.56zm-83.76 151.68l42.48-69.36-25.2 49.44-17.28 19.92zm5.52 3.12l-34.8 67.92v.48h-.24l7.92-37.44 27.12-30.96zm-28.8 22.08l-36.24-120.24 137.52-44.64-101.28 164.88zm-187.2-83.76l144-34.56h.96l36 120-180.96-85.44zm171.84 87.84l-91.2-.24-76.56-78.72 167.76 78.96zm-34.08-217.44l147.12 43.44-135.6 43.68-11.52-87.12zm5.28 89.04l-142.56 34.08h-.24l131.28-121.2 11.52 87.12zm-2.64-94.8l49.92-51.6 95.52 94.32-145.44-42.72zm-4.8-4.32l-52.32-156.72 102.72 105.12-50.4 51.6zm-6 2.4l-100.08-17.28 46.8-142.8 53.28 160.08zm-106.08-19.44l-126.48-41.28v-.24l173.04-102.24-46.56 143.76zm-120.72-52.08l35.76-43.68 104.88-39.6h.48l-141.12 83.28zm-14.64 7.92l-51.36 3.36v-.24l86.16-46.08-34.8 42.96zm-3.36 6.72h1.68l.24.48-6.48 81.84-52.08-78.96 56.64-3.36zm7.68 8.88l85.92 168.96-92.4-86.88 6.48-82.08zm3.84-6.48l125.52 41.04-33.12 140.4-92.4-181.44zm132 43.2l98.4 16.8v.24l-131.76 121.2 33.36-138.24zm162.24-47.04l-108-110.4 203.52-13.2-95.52 123.6zm81.12-130.08l-49.44 1.44v-.24l32.4-6 17.04 4.8zm-22.56-9.84l-64.8 11.76-42.96-103.92 107.76 92.16zm-116.16-95.76l45.12 108.24v.24l-96.96 10.56 51.84-119.04zm-58.32 118.08l-37.68-28.8 86.4-83.76-48.72 112.56zm-23.04-9.36l-86.88-39.84 63.84 22.56 23.04 17.28zm65.76-106.32l-85.44 82.56-26.16-34.08 111.6-48.48zm-119.04 49.68l23.52 30.24-99.84-35.28 76.32 5.04zm70.08 71.04v.24l-130.08 48.72-34.08-124.08 164.16 75.12zm-169.44-70.32l33.6 122.16-103.2 55.68 69.6-177.84zm-35.28 71.28l-4.32 12.72-30.48 5.28 34.8-18zm-51.36 27.12l42.72-7.2h1.2v.24l-31.68 81.6-.48.24-11.76-74.88zm4.08 104.4l-21.6 129.84-.48.24-32.64-25.44 54.72-104.64zm-26.16 153.84l-21.36-35.76 24 18.48-2.4 17.28h-.24zm2.4 23.28l31.92-186.48 54 82.32-84.72 103.2-1.2.96zm90-99.36l99.12 93.6-186.48 12.48 87.36-106.08zm98.64 99.84l-55.92 52.32-119.76-40.32h-.48l172.8-12h3.36zm-178.32 17.76l117.12 39.36v.24l-33.12 32.88-84-72.48zm88.56 76.56l32.88-32.88 44.4 112.8-77.28-79.92zm83.76 78.96h-.24l-45.6-116.64 55.92-51.84-10.08 168.48zm16.8-169.44l82.56 84.72-93.84 91.92 11.28-176.64zm11.76 182.64l34.32-6.48 2.16 37.68-36.48-31.2zm42.72 33.36l-2.16-40.8 109.68-20.16h1.2l-108.72 60.96zm118.32-69.36l-177.84 33.12 92.16-90.72 85.68 57.36v.24zm6-3.84l-81.84-54.72 93.12.48-11.28 54.24zm13.68 4.8l-.48-.24 62.4-23.52 2.16 34.08-64.08-10.32zm70.08 5.28l-1.68-31.44 31.44-11.76-29.76 43.2zm-75.84-10.08l53.28-104.4 126.72 37.2-180 67.2zm185.04-72.48l-128.88-37.44 60.72-118.32 68.16 155.76z"/></svg>