<svg xmlns="http://www.w3.org/2000/svg" width="50" height="50"><path fill="#888" d="M42.934 13.845v-4.082c0-.488-.397-.885-.886-.885h-9.754c-.488 0-.886.397-.886.885v3.396h-13.733c.029-.156.048-.314.048-.48 0-1.242-.881-2.252-1.964-2.252h-2.971c-1.082 0-1.963 1.01-1.963 2.252 0 .166.018.324.047.48h-1.144c-1.791 0-3.248 1.588-3.248 3.539v20.729c0 1.953 1.457 3.539 3.248 3.539h31.303c1.791 0 3.248-1.586 3.248-3.539v-20.728c0-1.176-.535-2.211-1.345-2.854zm-9.754-3.195h7.982v2.51h-7.981999999999999v-2.51zm-20.391 1.551l2.966-.002c.054.016.196.19.196.481 0 .287-.139.461-.195.48h-2.961c-.055-.018-.197-.189-.197-.48s.142-.466.191-.479zm29.717 25.226c0 .959-.676 1.768-1.475 1.768h-31.303c-.801 0-1.477-.809-1.477-1.768v-2.857h2.732c.488 0 .885-.398.885-.887 0-.49-.396-.885-.885-.885h-2.731v-1.478h4.565c.489 0 .886-.396.886-.887 0-.486-.396-.885-.886-.885h-4.565v-1.6h6.128c.489 0 .886-.396.886-.887 0-.488-.396-.885-.886-.885h-6.128v-9.479c0-.959.676-1.767 1.477-1.767h31.303c.8 0 1.475.808 1.475 1.767v20.73zm-11.978-15.383c-2.769 0-5.02 2.252-5.02 5.02s2.251 5.02 5.02 5.02c2.768 0 5.02-2.252 5.02-5.02-.001-2.768-2.253-5.02-5.02-5.02zm0 8.268c-1.792 0-3.249-1.457-3.249-3.248 0-1.791 1.457-3.248 3.249-3.248 1.791 0 3.248 1.457 3.248 3.248 0 1.791-1.457 3.248-3.248 3.248zm0-12.182c-4.926 0-8.933 4.008-8.933 8.934 0 4.926 4.007 8.934 8.933 8.934 4.925 0 8.933-4.008 8.933-8.934-.001-4.926-4.008-8.934-8.933-8.934zm0 16.096c-3.949 0-7.161-3.213-7.161-7.162s3.212-7.16 7.161-7.16c3.949 0 7.161 3.211 7.161 7.16 0 3.949-3.212 7.162-7.161 7.162zm-13.065-16.096h-4.396c-1.393 0-2.526 1.275-2.526 2.842s1.134 2.842 2.526 2.842h4.396c1.393 0 2.526-1.275 2.526-2.842s-1.133-2.842-2.526-2.842zm0 3.912h-4.396c-.409 0-.755-.49-.755-1.07 0-.58.346-1.07.755-1.07h4.396c.409 0 .755.49.755 1.07 0 .58-.345 1.07-.755 1.07z"/></svg>