<svg xmlns="http://www.w3.org/2000/svg" width="50" height="50"><path fill="#888" d="M25.941 12.375h-9c-.414 0-.75.336-.75.75s.336.75.75.75h9c.414 0 .75-.336.75-.75s-.336-.75-.75-.75zm-12.828 7.062h16.266c.414 0 .75-.336.75-.75v-8.375c0-.414-.336-.75-.75-.75h-16.266c-.414 0-.75.336-.75.75v8.375c0 .414.336.75.75.75zm.75-8.375h14.766v6.875h-14.766v-6.875zm12.078 4.25h-9c-.414 0-.75.336-.75.75s.336.75.75.75h9c.414 0 .75-.336.75-.75s-.336-.75-.75-.75zm14.094-10.261h-2.584c-.106-.284-.376-.488-.697-.488h-3.469c-.321 0-.591.204-.697.488h-22.616c-.965 0-1.75.785-1.75 1.75v36.481c0 .965.785 1.75 1.75 1.75h22.656c.126.238.368.406.656.406h3.469c.288 0 .531-.168.656-.406h2.625c.965 0 1.75-.785 1.75-1.75v-36.481c.001-.965-.785-1.75-1.749-1.75zm-7.5 38.48h-22.563c-.135 0-.25-.114-.25-.25v-36.48c0-.136.115-.25.25-.25h22.562v36.98zm3.468.406h-1.969v-37.875h1.969v37.875zm4.282-.656c0 .136-.114.25-.25.25h-2.531v-36.98h2.531c.136 0 .25.114.25.25v36.48z"/></svg>