<svg xmlns="http://www.w3.org/2000/svg" width="50" height="50"><path fill="#888" d="M30.358 24.925h-10.245c-.542 0-.981.439-.981.98 0 .542.44.981.981.981h10.245c.541 0 .98-.439.98-.981 0-.541-.439-.98-.98-.98zm-10.245-6.813h10.245c.541 0 .98-.439.98-.981 0-.541-.44-.98-.98-.98h-10.245c-.542 0-.981.439-.981.98 0 .542.439.981.981.981zm14.419-8.147h-19.467c-6.172 0-11.194 5.317-11.194 11.854 0 6.536 5.022 11.854 11.194 11.854h11.233l3.969 6.944c.17.296.481.484.824.494h.027c.331 0 .642-.167.823-.445.038-.06 3.875-5.953 4.97-7.377.192-.252.911-.768 1.604-1.267 2.696-1.94 7.209-5.19 7.209-10.203.001-6.537-5.02-11.854-11.192-11.854zm2.837 20.464c-.954.686-1.644 1.184-2.013 1.664-.814 1.059-2.958 4.298-4.181 6.159l-3.455-6.048c-.175-.306-.499-.494-.852-.494h-11.803c-5.091 0-9.232-4.438-9.232-9.892s4.141-9.892 9.232-9.892h19.467c5.09 0 9.232 4.438 9.232 9.892-.001 4.009-3.849 6.779-6.395 8.611zm-3.034-9.864h-19.292c-.542 0-.981.44-.981.981s.439.98.981.98h19.292c.541 0 .981-.439.981-.98s-.44-.981-.981-.981z"/></svg>